<?xml version="1.0" encoding="utf-8" standalone="no"?>
<!DOCTYPE svg PUBLIC "-//W3C//DTD SVG 1.1//EN"
  "http://www.w3.org/Graphics/SVG/1.1/DTD/svg11.dtd">
<svg xmlns:xlink="http://www.w3.org/1999/xlink" width="701.269881pt" height="125.278965pt" viewBox="0 0 701.269881 125.278965" xmlns="http://www.w3.org/2000/svg" version="1.1">
 <metadata>
  <rdf:RDF xmlns:dc="http://purl.org/dc/elements/1.1/" xmlns:cc="http://creativecommons.org/ns#" xmlns:rdf="http://www.w3.org/1999/02/22-rdf-syntax-ns#">
   <cc:Work>
    <dc:type rdf:resource="http://purl.org/dc/dcmitype/StillImage"/>
    <dc:date>2024-09-02T09:23:14.750810</dc:date>
    <dc:format>image/svg+xml</dc:format>
    <dc:creator>
     <cc:Agent>
      <dc:title>Matplotlib v3.5.3, https://matplotlib.org/</dc:title>
     </cc:Agent>
    </dc:creator>
   </cc:Work>
  </rdf:RDF>
 </metadata>
 <defs>
  <style type="text/css">*{stroke-linejoin: round; stroke-linecap: butt}</style>
 </defs>
 <g id="figure_1">
  <g id="patch_1">
   <path d="M 0 125.278965 
L 701.269881 125.278965 
L 701.269881 0 
L 0 0 
z
" style="fill: #ffffff"/>
  </g>
  <g id="axes_1">
   <g id="patch_2">
    <path d="M 151.915022 119.785616 
L 647.210172 119.785616 
L 647.210172 17.332411 
L 151.915022 17.332411 
z
" style="fill: #ffffff"/>
   </g>
   <g id="matplotlib.axis_1">
    <g id="xtick_1">
     <g id="line2d_1">
      <defs>
       <path id="mbd0290a481" d="M 0 0 
L 0 -3.5 
" style="stroke: #000000; stroke-width: 0.8"/>
      </defs>
      <g>
       <use xlink:href="#mbd0290a481" x="226.382474" y="21.989375" style="stroke: #000000; stroke-width: 0.8"/>
      </g>
     </g>
     <g id="text_1">
      <text style="font: 14px 'DejaVu Sans'; text-anchor: middle" x="226.382474" y="12.077812" transform="rotate(-0, 226.382474, 12.077812)">1.0</text>
     </g>
    </g>
    <g id="xtick_2">
     <g id="line2d_2">
      <g>
       <use xlink:href="#mbd0290a481" x="312.972536" y="21.989375" style="stroke: #000000; stroke-width: 0.8"/>
      </g>
     </g>
     <g id="text_2">
      <text style="font: 14px 'DejaVu Sans'; text-anchor: middle" x="312.972536" y="12.077812" transform="rotate(-0, 312.972536, 12.077812)">1.5</text>
     </g>
    </g>
    <g id="xtick_3">
     <g id="line2d_3">
      <g>
       <use xlink:href="#mbd0290a481" x="399.562597" y="21.989375" style="stroke: #000000; stroke-width: 0.8"/>
      </g>
     </g>
     <g id="text_3">
      <text style="font: 14px 'DejaVu Sans'; text-anchor: middle" x="399.562597" y="12.077812" transform="rotate(-0, 399.562597, 12.077812)">2.0</text>
     </g>
    </g>
    <g id="xtick_4">
     <g id="line2d_4">
      <g>
       <use xlink:href="#mbd0290a481" x="486.152658" y="21.989375" style="stroke: #000000; stroke-width: 0.8"/>
      </g>
     </g>
     <g id="text_4">
      <text style="font: 14px 'DejaVu Sans'; text-anchor: middle" x="486.152658" y="12.077812" transform="rotate(-0, 486.152658, 12.077812)">2.5</text>
     </g>
    </g>
    <g id="xtick_5">
     <g id="line2d_5">
      <g>
       <use xlink:href="#mbd0290a481" x="572.742719" y="21.989375" style="stroke: #000000; stroke-width: 0.8"/>
      </g>
     </g>
     <g id="text_5">
      <text style="font: 14px 'DejaVu Sans'; text-anchor: middle" x="572.742719" y="12.077812" transform="rotate(-0, 572.742719, 12.077812)">3.0</text>
     </g>
    </g>
   </g>
   <g id="line2d_6">
    <path d="M 174.428437 91.843833 
L 226.382474 91.843833 
L 226.382474 21.989375 
" clip-path="url(#p43532b787c)" style="fill: none; stroke: #1f77b4; stroke-width: 1.5; stroke-linecap: square"/>
   </g>
   <g id="line2d_7">
    <path d="M 174.428437 115.128652 
L 399.562597 115.128652 
L 399.562597 21.989375 
" clip-path="url(#p43532b787c)" style="fill: none; stroke: #ff7f0e; stroke-width: 1.5; stroke-linecap: square"/>
   </g>
   <g id="line2d_8">
    <path d="M 624.696756 91.843833 
L 572.742719 91.843833 
L 572.742719 21.989375 
" clip-path="url(#p43532b787c)" style="fill: none; stroke: #2ca02c; stroke-width: 1.5; stroke-linecap: square"/>
   </g>
   <g id="patch_3">
    <path d="M 151.915022 21.989375 
L 647.210172 21.989375 
" style="fill: none; stroke: #000000; stroke-width: 1.25; stroke-linejoin: miter; stroke-linecap: square"/>
   </g>
   <g id="line2d_9">
    <path d="M 399.562597 45.274194 
L 572.742719 45.274194 
" clip-path="url(#p43532b787c)" style="fill: none; stroke: #000000; stroke-width: 2.5; stroke-linecap: square"/>
    <defs>
     <path id="mca73c67506" d="M 0 3 
C 0.795609 3 1.55874 2.683901 2.12132 2.12132 
C 2.683901 1.55874 3 0.795609 3 0 
C 3 -0.795609 2.683901 -1.55874 2.12132 -2.12132 
C 1.55874 -2.683901 0.795609 -3 0 -3 
C -0.795609 -3 -1.55874 -2.683901 -2.12132 -2.12132 
C -2.683901 -1.55874 -3 -0.795609 -3 0 
C -3 0.795609 -2.683901 1.55874 -2.12132 2.12132 
C -1.55874 2.683901 -0.795609 3 0 3 
z
" style="stroke: #000000"/>
    </defs>
    <g clip-path="url(#p43532b787c)">
     <use xlink:href="#mca73c67506" x="399.562597" y="45.274194" style="stroke: #000000"/>
     <use xlink:href="#mca73c67506" x="572.742719" y="45.274194" style="stroke: #000000"/>
    </g>
   </g>
   <g id="line2d_10">
    <path d="M 399.562597 68.559014 
L 226.382474 68.559014 
" clip-path="url(#p43532b787c)" style="fill: none; stroke: #000000; stroke-width: 2.5; stroke-linecap: square"/>
    <g clip-path="url(#p43532b787c)">
     <use xlink:href="#mca73c67506" x="399.562597" y="68.559014" style="stroke: #000000"/>
     <use xlink:href="#mca73c67506" x="226.382474" y="68.559014" style="stroke: #000000"/>
    </g>
   </g>
   <g id="PathCollection_1">
    <defs>
     <path id="m45109bbf52" d="M 0 -6.123724 
L -1.374862 -1.892335 
L -5.824008 -1.892335 
L -2.224573 0.722808 
L -3.599435 4.954197 
L -0 2.339054 
L 3.599435 4.954197 
L 2.224573 0.722808 
L 5.824008 -1.892335 
L 1.374862 -1.892335 
z
" style="stroke: #000000"/>
    </defs>
    <g clip-path="url(#p43532b787c)">
     <use xlink:href="#m45109bbf52" x="226.382474" y="21.989375" style="fill: #bfbf00; stroke: #000000"/>
    </g>
   </g>
   <g id="text_6">
    <text style="fill: #1f77b4; font: 18px 'DejaVu Sans'; text-anchor: end" x="174.428437" y="96.810708" transform="rotate(-0, 174.428437, 96.810708)">DMFCC-CEEMDAN  </text>
   </g>
   <g id="PathCollection_2">
    <g clip-path="url(#p43532b787c)">
     <use xlink:href="#m45109bbf52" x="399.562597" y="21.989375" style="fill: #bfbf00; stroke: #000000"/>
    </g>
   </g>
   <g id="text_7">
    <text style="fill: #ff7f0e; font: 18px 'DejaVu Sans'; text-anchor: end" x="174.428437" y="120.095527" transform="rotate(-0, 174.428437, 120.095527)">BiLSTM-Attention  </text>
   </g>
   <g id="PathCollection_3">
    <g clip-path="url(#p43532b787c)">
     <use xlink:href="#m45109bbf52" x="572.742719" y="21.989375" style="fill: #bfbf00; stroke: #000000"/>
    </g>
   </g>
   <g id="text_8">
    <text style="fill: #2ca02c; font: 18px 'DejaVu Sans'; text-anchor: start" x="624.696756" y="96.810708" transform="rotate(-0, 624.696756, 96.810708)">  CTCAIT</text>
   </g>
  </g>
 </g>
 <defs>
  <clipPath id="p43532b787c">
   <rect x="151.915022" y="17.332411" width="495.29515" height="102.453205"/>
  </clipPath>
 </defs>
</svg>
