<?xml version="1.0" encoding="utf-8" standalone="no"?>
<!DOCTYPE svg PUBLIC "-//W3C//DTD SVG 1.1//EN"
  "http://www.w3.org/Graphics/SVG/1.1/DTD/svg11.dtd">
<svg xmlns:xlink="http://www.w3.org/1999/xlink" width="708.527187pt" height="529.100298pt" viewBox="0 0 708.527187 529.100298" xmlns="http://www.w3.org/2000/svg" version="1.1">
 <metadata>
  <rdf:RDF xmlns:dc="http://purl.org/dc/elements/1.1/" xmlns:cc="http://creativecommons.org/ns#" xmlns:rdf="http://www.w3.org/1999/02/22-rdf-syntax-ns#">
   <cc:Work>
    <dc:type rdf:resource="http://purl.org/dc/dcmitype/StillImage"/>
    <dc:date>2024-09-02T09:23:12.014556</dc:date>
    <dc:format>image/svg+xml</dc:format>
    <dc:creator>
     <cc:Agent>
      <dc:title>Matplotlib v3.5.3, https://matplotlib.org/</dc:title>
     </cc:Agent>
    </dc:creator>
   </cc:Work>
  </rdf:RDF>
 </metadata>
 <defs>
  <style type="text/css">*{stroke-linejoin: round; stroke-linecap: butt}</style>
 </defs>
 <g id="figure_1">
  <g id="patch_1">
   <path d="M 0 529.100298 
L 708.527187 529.100298 
L 708.527187 0 
L 0 0 
z
" style="fill: #ffffff"/>
  </g>
  <g id="axes_1">
   <g id="patch_2">
    <path d="M 169.987188 424.8 
L 593.347188 424.8 
L 593.347188 1.44 
L 169.987188 1.44 
z
" style="fill: #ffffff"/>
   </g>
   <g id="QuadMesh_1">
    <path d="M 169.987188 1.44 
L 311.107188 1.44 
L 311.107188 142.56 
L 169.987188 142.56 
L 169.987188 1.44 
" clip-path="url(#pf8d00d5a52)" style="fill: #ffffff"/>
    <path d="M 311.107188 1.44 
L 452.227188 1.44 
L 452.227188 142.56 
L 311.107188 142.56 
L 311.107188 1.44 
" clip-path="url(#pf8d00d5a52)" style="fill: #fb6a4a"/>
    <path d="M 452.227188 1.44 
L 593.347188 1.44 
L 593.347188 142.56 
L 452.227188 142.56 
L 452.227188 1.44 
" clip-path="url(#pf8d00d5a52)" style="fill: #c6dbef"/>
    <path d="M 169.987188 142.56 
L 311.107188 142.56 
L 311.107188 283.68 
L 169.987188 283.68 
L 169.987188 142.56 
" clip-path="url(#pf8d00d5a52)" style="fill: #fb6a4a"/>
    <path d="M 311.107188 142.56 
L 452.227188 142.56 
L 452.227188 283.68 
L 311.107188 283.68 
L 311.107188 142.56 
" clip-path="url(#pf8d00d5a52)" style="fill: #ffffff"/>
    <path d="M 452.227188 142.56 
L 593.347188 142.56 
L 593.347188 283.68 
L 452.227188 283.68 
L 452.227188 142.56 
" clip-path="url(#pf8d00d5a52)" style="fill: #fb6a4a"/>
    <path d="M 169.987188 283.68 
L 311.107188 283.68 
L 311.107188 424.8 
L 169.987188 424.8 
L 169.987188 283.68 
" clip-path="url(#pf8d00d5a52)" style="fill: #c6dbef"/>
    <path d="M 311.107188 283.68 
L 452.227188 283.68 
L 452.227188 424.8 
L 311.107188 424.8 
L 311.107188 283.68 
" clip-path="url(#pf8d00d5a52)" style="fill: #fb6a4a"/>
    <path d="M 452.227188 283.68 
L 593.347188 283.68 
L 593.347188 424.8 
L 452.227188 424.8 
L 452.227188 283.68 
" clip-path="url(#pf8d00d5a52)" style="fill: #ffffff"/>
   </g>
   <g id="patch_3">
    <path d="M 169.987188 1.44 
L 593.347188 1.44 
L 593.347188 424.8 
L 169.987188 424.8 
L 169.987188 1.44 
z
" clip-path="url(#pf8d00d5a52)" style="fill: none; stroke: #000000; stroke-width: 3; stroke-linejoin: miter"/>
   </g>
   <g id="matplotlib.axis_1">
    <g id="xtick_1">
     <g id="text_1">
      <text style="font: 18px 'DejaVu Sans'; text-anchor: end" x="247.385781" y="443.644792" transform="rotate(-30, 247.385781, 443.644792)">DMFCC-CEEMDAN</text>
     </g>
    </g>
    <g id="xtick_2">
     <g id="text_2">
      <text style="font: 18px 'DejaVu Sans'; text-anchor: end" x="388.505781" y="443.644792" transform="rotate(-30, 388.505781, 443.644792)">BiLSTM-Attention</text>
     </g>
    </g>
    <g id="xtick_3">
     <g id="text_3">
      <text style="font: 18px 'DejaVu Sans'; text-anchor: end" x="529.625781" y="443.644792" transform="rotate(-30, 529.625781, 443.644792)">CTCAIT</text>
     </g>
    </g>
   </g>
   <g id="matplotlib.axis_2">
    <g id="ytick_1">
     <g id="text_4">
      <text style="font: 18px 'DejaVu Sans'; text-anchor: end" x="162.987188" y="78.838594" transform="rotate(-0, 162.987188, 78.838594)">DMFCC-CEEMDAN</text>
     </g>
    </g>
    <g id="ytick_2">
     <g id="text_5">
      <text style="font: 18px 'DejaVu Sans'; text-anchor: end" x="162.987188" y="219.958594" transform="rotate(-0, 162.987188, 219.958594)">BiLSTM-Attention</text>
     </g>
    </g>
    <g id="ytick_3">
     <g id="text_6">
      <text style="font: 18px 'DejaVu Sans'; text-anchor: end" x="162.987188" y="361.078594" transform="rotate(-0, 162.987188, 361.078594)">CTCAIT</text>
     </g>
    </g>
   </g>
  </g>
  <g id="axes_2">
   <g id="patch_4">
    <path d="M 601.987188 313.92 
L 627.907188 313.92 
L 627.907188 162.72 
L 601.987188 162.72 
z
" style="fill: #ffffff"/>
   </g>
   <g id="patch_5">
    <path clip-path="url(#p0c51418615)" style="fill: #ffffff; stroke: #ffffff; stroke-width: 0.01; stroke-linejoin: miter"/>
   </g>
   <g id="QuadMesh_2">
    <path d="M 601.987188 313.92 
L 627.907188 313.92 
L 627.907188 276.12 
L 601.987188 276.12 
L 601.987188 313.92 
" clip-path="url(#p0c51418615)" style="fill: #08306b"/>
    <path d="M 601.987188 276.12 
L 627.907188 276.12 
L 627.907188 238.32 
L 601.987188 238.32 
L 601.987188 276.12 
" clip-path="url(#p0c51418615)" style="fill: #4292c6"/>
    <path d="M 601.987188 238.32 
L 627.907188 238.32 
L 627.907188 200.52 
L 601.987188 200.52 
L 601.987188 238.32 
" clip-path="url(#p0c51418615)" style="fill: #c6dbef"/>
    <path d="M 601.987188 200.52 
L 627.907188 200.52 
L 627.907188 162.72 
L 601.987188 162.72 
L 601.987188 200.52 
" clip-path="url(#p0c51418615)" style="fill: #fb6a4a"/>
   </g>
   <g id="matplotlib.axis_3">
    <g id="ytick_4">
     <g id="line2d_1"/>
     <g id="text_7">
      <!-- $p &lt; 0.001$ -->
      <g transform="translate(631.407188 301.0825)">
       <text>
        <tspan style="font: oblique 16px 'DejaVu Sans'" x="0" y="-0.125">p</tspan>
        <tspan style="font: 16px 'DejaVu Sans'" x="13.273438 29.796875 39.976562 45.0625 55.242188 65.421875" y="-0.125">&lt;0.001</tspan>
       </text>
      </g>
     </g>
    </g>
    <g id="ytick_5">
     <g id="line2d_2"/>
     <g id="text_8">
      <!-- $p &lt; 0.01$ -->
      <g transform="translate(631.407188 263.2825)">
       <text>
        <tspan style="font: oblique 16px 'DejaVu Sans'" x="0" y="-0.125">p</tspan>
        <tspan style="font: 16px 'DejaVu Sans'" x="13.273438 29.796875 39.976562 45.0625 55.242188" y="-0.125">&lt;0.01</tspan>
       </text>
      </g>
     </g>
    </g>
    <g id="ytick_6">
     <g id="line2d_3"/>
     <g id="text_9">
      <!-- $p &lt; 0.05$ -->
      <g transform="translate(631.407188 225.4825)">
       <text>
        <tspan style="font: oblique 16px 'DejaVu Sans'" x="0" y="-0.125">p</tspan>
        <tspan style="font: 16px 'DejaVu Sans'" x="13.273438 29.796875 39.976562 45.0625 55.242188" y="-0.125">&lt;0.05</tspan>
       </text>
      </g>
     </g>
    </g>
    <g id="ytick_7">
     <g id="line2d_4"/>
     <g id="text_10">
      <text style="font: 16px 'DejaVu Sans'; text-anchor: start" x="631.407188" y="187.69875" transform="rotate(-0, 631.407188, 187.69875)">ns</text>
     </g>
    </g>
   </g>
   <g id="LineCollection_1"/>
   <g id="patch_6">
    <path d="M 601.987188 313.92 
L 614.947188 313.92 
L 627.907188 313.92 
L 627.907188 162.72 
L 614.947188 162.72 
L 601.987188 162.72 
L 601.987188 313.92 
z
" style="fill: none; stroke: #000000; stroke-linejoin: miter; stroke-linecap: square"/>
   </g>
  </g>
 </g>
 <defs>
  <clipPath id="pf8d00d5a52">
   <rect x="169.987188" y="1.44" width="423.36" height="423.36"/>
  </clipPath>
  <clipPath id="p0c51418615">
   <rect x="601.987188" y="162.72" width="25.92" height="151.2"/>
  </clipPath>
 </defs>
</svg>
